<svg id="SvgjsSvg1001" width="288" height="288" xmlns="http://www.w3.org/2000/svg" version="1.1" xmlns:xlink="http://www.w3.org/1999/xlink" xmlns:svgjs="http://svgjs.com/svgjs"><defs id="SvgjsDefs1002"></defs><g id="SvgjsG1008" transform="matrix(0.9167,0,0,0.9167,11.941888473386172,12.024745464777965)"><svg xmlns="http://www.w3.org/2000/svg" viewBox="0 0 54 54" width="288" height="288"><g fill="none" fill-rule="evenodd"><path fill="#000000" d="M19.712.133a5.381 5.381 0 0 0-5.376 5.387 5.381 5.381 0 0 0 5.376 5.386h5.376V5.52A5.381 5.381 0 0 0 19.712.133m0 14.365H5.376A5.381 5.381 0 0 0 0 19.884a5.381 5.381 0 0 0 5.376 5.387h14.336a5.381 5.381 0 0 0 5.376-5.387 5.381 5.381 0 0 0-5.376-5.386" class="color36C5F0 svgShape"></path><path fill="#000000" d="M53.76 19.884a5.381 5.381 0 0 0-5.376-5.386 5.381 5.381 0 0 0-5.376 5.386v5.387h5.376a5.381 5.381 0 0 0 5.376-5.387m-14.336 0V5.52A5.381 5.381 0 0 0 34.048.133a5.381 5.381 0 0 0-5.376 5.387v14.364a5.381 5.381 0 0 0 5.376 5.387 5.381 5.381 0 0 0 5.376-5.387" class="color2EB67D svgShape"></path><path fill="#000000" d="M34.048 54a5.381 5.381 0 0 0 5.376-5.387 5.381 5.381 0 0 0-5.376-5.386h-5.376v5.386A5.381 5.381 0 0 0 34.048 54m0-14.365h14.336a5.381 5.381 0 0 0 5.376-5.386 5.381 5.381 0 0 0-5.376-5.387H34.048a5.381 5.381 0 0 0-5.376 5.387 5.381 5.381 0 0 0 5.376 5.386" class="colorECB22E svgShape"></path><path fill="#000000" d="M0 34.249a5.381 5.381 0 0 0 5.376 5.386 5.381 5.381 0 0 0 5.376-5.386v-5.387H5.376A5.381 5.381 0 0 0 0 34.25m14.336-.001v14.364A5.381 5.381 0 0 0 19.712 54a5.381 5.381 0 0 0 5.376-5.387V34.25a5.381 5.381 0 0 0-5.376-5.387 5.381 5.381 0 0 0-5.376 5.387" class="colorE01E5A svgShape"></path></g></svg></g></svg>